<?xml version="1.0" encoding="UTF-8" standalone="no"?><!DOCTYPE svg PUBLIC "-//W3C//DTD SVG 1.1//EN" "http://www.w3.org/Graphics/SVG/1.1/DTD/svg11.dtd"><svg width="100%" height="100%" viewBox="0 0 1280 1280" version="1.1" xmlns="http://www.w3.org/2000/svg" xmlns:xlink="http://www.w3.org/1999/xlink" xml:space="preserve" xmlns:serif="http://www.serif.com/" style="fill-rule:evenodd;clip-rule:evenodd;stroke-linejoin:round;stroke-miterlimit:1.41421;"><g id="Layer1"><text x="363.837px" y="963.244px" style="font-family:'Mukta-Bold', 'Mukta', sans-serif;font-weight:700;font-size:985.842px;stroke:#000;stroke-width:1px;">P</text><rect x="382.408" y="462.005" width="524.908" height="52.376"/><rect x="382.435" y="554.209" width="524.908" height="52.376"/><path id="_-Curves-" serif:id="(Curves)" d="M660.158,90.855c-56.527,0 -115.555,8.345 -175.454,24.807c-239.579,65.845 -413.468,294.846 -413.468,544.513c0,139.876 58.451,273.325 164.581,375.769c100.874,97.363 232.025,153.201 359.826,153.201c366.04,0 592.615,-260.368 592.615,-501.62c0,-165.378 -51.66,-316.255 -145.475,-424.838c-97.118,-112.414 -229.428,-171.832 -382.625,-171.832Zm-64.515,1114.32c-131.92,0 -267.127,-57.479 -370.96,-157.7c-109.289,-105.484 -169.481,-243.036 -169.481,-387.304c0,-256.752 178.847,-492.255 425.255,-559.97c61.277,-16.846 121.737,-25.384 179.701,-25.384c155.74,0 295.931,62.998 394.758,177.383c96.327,111.495 149.381,266.096 149.381,435.321c0,248.961 -232.708,517.654 -608.654,517.654Z" style="fill:none;stroke:#000;stroke-width:80px;"/></g></svg>